PathFileType	4	(X/Y/Z)	 s09c0102.trc
DataRate	CameraRate	NumFrames	NumMarkers	Units	OrigDataRate	OrigDataStartFrame	OrigNumFrames
200	200	5	50	mm	200	251	2000
Frame#	Time	racr			lacr			c7			jug			rlel			rdr			llel			ldr			s2			lic			ric			lasi			rasi			rpsi			lpsi			rgt			lgt			rth1			rth2			rth3			rth4			rlfc			rmfc			rsh1			rsh2			rsh3			rsh4			rlmal			rmmal			rcal			rtoe			rmt5			lth1			lth2			lth4			lth3			llfc			lmfc			llmal			lmmal			lcal			lmt5			lsh1			lsh2			lsh3			lsh4			ltoe			SBIKE			LBIKE			RBIKE			
		X1	Y1	Z1	X2	Y2	Z2	X3	Y3	Z3	X4	Y4	Z4	X5	Y5	Z5	X6	Y6	Z6	X7	Y7	Z7	X8	Y8	Z8	X9	Y9	Z9	X10	Y10	Z10	X11	Y11	Z11	X12	Y12	Z12	X13	Y13	Z13	X14	Y14	Z14	X15	Y15	Z15	X16	Y16	Z16	X17	Y17	Z17	X18	Y18	Z18	X19	Y19	Z19	X20	Y20	Z20	X21	Y21	Z21	X22	Y22	Z22	X23	Y23	Z23	X24	Y24	Z24	X25	Y25	Z25	X26	Y26	Z26	X27	Y27	Z27	X28	Y28	Z28	X29	Y29	Z29	X30	Y30	Z30	X31	Y31	Z31	X32	Y32	Z32	X33	Y33	Z33	X34	Y34	Z34	X35	Y35	Z35	X36	Y36	Z36	X37	Y37	Z37	X38	Y38	Z38	X39	Y39	Z39	X40	Y40	Z40	X41	Y41	Z41	X42	Y42	Z42	X43	Y43	Z43	X44	Y44	Z44	X45	Y45	Z45	X46	Y46	Z46	X47	Y47	Z47	X48	Y48	Z48	X49	Y49	Z49	X50	Y50	Z50	
251	1.2550	501.187308	1291.739905	-84.679665	516.612893	1280.312202	-407.023034	489.511568	1317.700486	-241.542140	476.291648	1185.054005	-245.548086	523.977510	1055.491804	18.513826	701.630139	880.970174	-38.146867	498.142299	1026.384981	-528.037764	686.175181	878.193744	-448.389439	18.069750	1118.648847	-239.985901	152.679592	1116.124697	-389.506896	163.786976	1122.431484	-96.047211	196.638079	1058.777227	-366.392453	208.019894	1067.273176	-116.357985	47.712636	1149.612172	-182.550905	43.476673	1155.363249	-292.632823	137.696019	977.517670	-49.707512	117.384204	995.309344	-432.442795	230.984285	874.243732	-53.367629	303.796835	825.926188	-62.103543	338.246252	744.084272	-67.943644	326.544703	844.733974	-84.506519	375.931654	643.844107	-100.546344	356.478496	631.459309	-197.405671	286.788601	590.459758	-70.245145	233.780851	519.418498	-84.135086	151.977976	485.623146	-83.513896	250.786564	503.191909	-116.532908	72.118438	423.811733	-86.020378	78.670622	434.217265	-164.187419	-17.778846	427.745621	-124.853270	215.206255	303.018214	-124.118452	133.859430	324.995320	-60.060476	229.162360	915.900046	-434.066524	312.452487	897.106071	-429.774566	329.627083	927.327251	-413.434249	378.396894	835.211501	-428.656830	456.311890	762.000463	-412.044822	477.916861	752.963354	-311.964516	363.286370	408.499393	-408.317540	381.417664	419.997159	-338.683466	291.396492	374.364303	-370.926679	457.011158	323.265053	-433.370478	433.362592	663.176791	-431.849048	434.221526	576.566287	-419.986181	389.531195	499.826077	-416.821850	458.579365	573.908059	-389.384895	548.869324	336.193970	-365.212090	-65.251772	853.100496	-238.722126	20.756441	84.819181	-441.973887	21.126440	84.089383	-43.766198	
252	1.2600	501.263734	1291.482331	-84.848582	516.599276	1280.304240	-407.050716	489.503574	1317.657974	-241.600628	476.295843	1185.040323	-245.603278	523.983650	1055.513586	18.487143	701.626793	880.981395	-38.158537	498.132690	1026.365236	-528.082256	686.165714	878.201641	-448.380135	18.072602	1118.648601	-240.005105	152.662588	1116.114857	-389.500082	163.773519	1122.423249	-96.052194	196.614979	1058.791112	-366.417200	208.014534	1067.275830	-116.383018	47.715345	1149.617698	-182.568796	43.447342	1155.356246	-292.644693	137.694454	977.533248	-49.730835	117.370270	995.294840	-432.459315	230.997081	874.241293	-53.362524	303.819048	825.933727	-62.109884	338.260925	744.072166	-67.950427	326.554541	844.734074	-84.515343	375.937240	643.820314	-100.554030	356.467211	631.455664	-197.418604	286.780702	590.475198	-70.265054	233.778788	519.436459	-84.151363	151.979841	485.624986	-83.529071	250.803388	503.205432	-116.532167	72.098310	423.827295	-86.007553	78.670978	434.216974	-164.187634	-17.788103	427.738923	-124.839989	215.206169	303.013933	-124.110890	133.839327	324.999831	-60.053703	229.140841	915.879642	-434.065427	312.444784	897.096588	-429.766351	329.613224	927.312415	-413.446350	378.374479	835.205891	-428.675362	456.304615	761.991709	-412.039140	477.904617	752.960248	-311.970169	363.276704	408.494770	-408.323427	381.387883	419.989437	-338.705277	291.392360	374.351269	-370.928479	457.003624	323.287673	-433.374169	433.354252	663.167190	-431.849197	434.207841	576.579478	-420.010029	389.528078	499.812883	-416.818115	458.566915	573.923248	-389.381063	548.864730	336.201166	-365.218670	-65.258562	853.095205	-238.723424	20.744396	84.837393	-441.971875	21.129878	84.082615	-43.762813	
253	1.2650	501.202743	1291.754788	-84.762723	516.601235	1280.290217	-407.059158	489.527244	1317.639410	-241.637719	476.277927	1185.054095	-245.618771	523.990872	1055.513971	18.458858	701.644369	880.979584	-38.171401	498.156179	1026.291119	-528.091152	686.162208	878.185588	-448.389459	18.072583	1118.648563	-240.005095	152.651851	1116.118730	-389.512281	163.757852	1122.442012	-96.069371	196.593398	1058.815440	-366.413252	208.027533	1067.271959	-116.397137	47.715372	1149.617817	-182.568829	43.476925	1155.346669	-292.674059	137.694669	977.539181	-49.732620	117.362102	995.285277	-432.465344	231.004635	874.250140	-53.356736	303.811987	825.934130	-62.125250	338.252792	744.087006	-67.959004	326.542192	844.738371	-84.510519	375.951426	643.832597	-100.561765	356.483522	631.443554	-197.421114	286.767303	590.473294	-70.255800	233.790883	519.427279	-84.152162	151.979464	485.625411	-83.529122	250.789046	503.191396	-116.549531	72.104420	423.830277	-86.018243	78.665402	434.207452	-164.203653	-17.805473	427.749280	-124.853738	215.211273	303.026286	-124.120083	133.866126	325.006174	-60.074100	229.142474	915.863968	-434.084368	312.436670	897.082022	-429.773488	329.609012	927.306370	-413.465188	378.364572	835.184279	-428.667040	456.295431	761.987168	-412.038041	477.904297	752.952494	-311.968189	363.284364	408.489327	-408.326142	381.418393	419.989414	-338.708594	291.393148	374.357007	-370.921836	456.992031	323.275341	-433.375337	433.358235	663.162703	-431.851359	434.207840	576.562970	-420.006016	389.541000	499.799981	-416.823175	458.564643	573.897636	-389.399147	548.864713	336.189206	-365.213619	-65.256298	853.096263	-238.725219	20.740582	84.831367	-441.970816	21.128402	84.081592	-43.775088	
254	1.2700	501.202757	1291.756474	-84.804134	516.614940	1280.273845	-407.084258	489.547365	1317.627142	-241.653883	476.261365	1185.051973	-245.642528	524.020726	1055.527063	18.447808	701.628881	880.971973	-38.194170	498.145638	1026.279329	-528.133733	686.162858	878.190647	-448.405391	18.075438	1118.648325	-240.024301	152.639188	1116.129096	-389.515348	163.760878	1122.439450	-96.067929	196.582571	1058.817097	-366.417096	208.002351	1067.322581	-116.410826	47.744076	1149.608515	-182.595952	43.448306	1155.352747	-292.664535	137.717760	977.549023	-49.757163	117.356074	995.264509	-432.462362	230.998349	874.247674	-53.394543	303.848483	825.915463	-62.156453	338.267004	744.076647	-67.968066	326.557998	844.745048	-84.560793	375.923046	643.841150	-100.571355	356.467701	631.444159	-197.426375	286.782047	590.474870	-70.264909	233.770530	519.445257	-84.172882	151.966626	485.626644	-83.533071	250.795132	503.208718	-116.569790	72.085825	423.840420	-86.016812	78.644631	434.226602	-164.187499	-17.804871	427.749048	-124.845123	215.212613	303.046345	-124.116786	133.860212	325.016656	-60.060615	229.141812	915.843846	-434.065594	312.438085	897.061010	-429.779351	329.596271	927.300304	-413.465029	378.364627	835.172886	-428.667646	456.296399	761.977118	-412.046140	477.885199	752.945722	-311.963257	363.276117	408.476995	-408.319398	381.411883	419.975181	-338.668527	291.388496	374.348675	-370.928414	456.999356	323.256943	-433.377485	433.374055	663.163645	-431.842890	434.224586	576.538061	-419.976596	389.540001	499.787159	-416.810041	458.565204	573.882860	-389.340778	548.862755	336.181306	-365.220373	-65.258987	853.095162	-238.723391	20.775763	84.994216	-441.855634	21.121445	84.075661	-43.770351	
255	1.2750	501.193977	1291.767789	-84.833327	516.612107	1280.239608	-407.110698	489.530544	1317.602797	-241.701999	476.282142	1185.040373	-245.673963	524.590700	1055.629849	18.709536	701.636106	880.966445	-38.206159	498.149124	1026.223788	-528.133393	686.156969	878.182385	-448.411614	18.075451	1118.648351	-240.024308	152.641548	1116.119394	-389.515850	163.751279	1122.478721	-96.089242	196.557941	1058.828776	-366.411968	207.986130	1067.314584	-116.417961	47.717381	1149.610492	-182.607513	43.477891	1155.343176	-292.693904	137.717451	977.537344	-49.760196	117.341596	995.243541	-432.476024	231.010217	874.249989	-53.392274	303.856342	825.932445	-62.163325	338.267720	744.069902	-67.991427	326.573925	844.729351	-84.579513	375.913798	643.854049	-100.599137	356.439622	631.442889	-197.445013	286.771233	590.474128	-70.270996	233.776680	519.425114	-84.180251	151.963689	485.653534	-83.534745	250.802582	503.191540	-116.567075	72.080534	423.821088	-86.021304	78.621323	434.233301	-164.186271	-17.817101	427.754830	-124.839656	215.213123	303.077604	-124.118766	133.851607	325.027903	-60.070820	229.120951	915.843625	-434.083253	312.422142	897.059499	-429.793774	329.591712	927.284831	-413.472824	378.351753	835.152447	-428.678082	456.297689	761.969707	-412.039267	477.903485	752.956440	-311.964918	363.278586	408.485372	-408.326708	381.417365	419.961346	-338.684150	291.398322	374.343680	-370.925075	457.010412	323.244455	-433.378973	433.379465	663.149982	-431.838173	434.224329	576.540254	-419.967158	389.551975	499.777578	-416.827040	458.586131	573.867423	-389.348019	548.877393	336.155743	-365.229634	-65.255348	853.092946	-238.743042	20.745922	84.848333	-441.978319	21.153225	84.045308	-43.749194	
